<?xml version="1.0" encoding="UTF-8" standalone="no"?>
<svg
   xmlns:dc="http://purl.org/dc/elements/1.1/"
   xmlns:cc="http://creativecommons.org/ns#"
   xmlns:rdf="http://www.w3.org/1999/02/22-rdf-syntax-ns#"
   xmlns:svg="http://www.w3.org/2000/svg"
   xmlns="http://www.w3.org/2000/svg"
   xmlns:sodipodi="http://sodipodi.sourceforge.net/DTD/sodipodi-0.dtd"
   xmlns:inkscape="http://www.inkscape.org/namespaces/inkscape"
   width="49.216614"
   height="70.836014"
   viewBox="0 0 13.021895 18.742029"
   version="1.1"
   id="svg8"
   inkscape:version="1.0 (4035a4fb49, 2020-05-01)"
   sodipodi:docname="locked.svg">
  <style
     id="style2">
     path:hover {
      stroke: blue !important;
     }
   </style>
  <defs
     id="defs2">
    <inkscape:path-effect
       effect="bspline"
       id="path-effect895"
       is_visible="true"
       lpeversion="1"
       weight="33.333333"
       steps="2"
       helper_size="0"
       apply_no_weight="true"
       apply_with_weight="true"
       only_selected="false" />
    <inkscape:path-effect
       only_selected="false"
       apply_with_weight="true"
       apply_no_weight="true"
       helper_size="0"
       steps="2"
       weight="33.333333"
       lpeversion="1"
       is_visible="true"
       id="path-effect867"
       effect="bspline" />
    <inkscape:path-effect
       only_selected="false"
       apply_with_weight="true"
       apply_no_weight="true"
       helper_size="0"
       steps="2"
       weight="33.333333"
       lpeversion="1"
       is_visible="true"
       id="path-effect1068"
       effect="bspline" />
    <inkscape:path-effect
       only_selected="false"
       apply_with_weight="true"
       apply_no_weight="true"
       helper_size="0"
       steps="2"
       weight="33.333333"
       lpeversion="1"
       is_visible="true"
       id="path-effect894"
       effect="bspline" />
    <inkscape:path-effect
       effect="bspline"
       id="path-effect890"
       is_visible="true"
       lpeversion="1"
       weight="33.333333"
       steps="2"
       helper_size="0"
       apply_no_weight="true"
       apply_with_weight="true"
       only_selected="false" />
    <inkscape:path-effect
       effect="bspline"
       id="path-effect882"
       is_visible="true"
       lpeversion="1"
       weight="33.333333"
       steps="2"
       helper_size="0"
       apply_no_weight="true"
       apply_with_weight="true"
       only_selected="false" />
    <clipPath
       id="clipPath992"
       clipPathUnits="userSpaceOnUse">
      <path
         d="m 35.648977,53.21341 v 46.403757 h 39.589131 c 0.0033,-0.019 0.0081,-0.03754 0.01116,-0.05658 0.04816,-0.298765 0.07795,-0.600486 0.127699,-0.898993 0.07058,-0.423463 0.179364,-0.824925 0.188001,-1.241847 -0.301817,-0.04942 -0.583345,-0.405257 -0.583257,-1.07608 3.9e-5,-0.333095 2.33e-4,-0.666035 -5.19e-4,-0.999132 -10e-4,-0.352543 0.0046,-0.705413 0.0026,-1.057976 -0.0029,-0.357239 -0.02664,-0.71503 0.0157,-1.070985 0.005,-0.05889 0.0102,-0.117618 0.0152,-0.176519 0.0097,-0.0087 0.03245,0.002 0.03598,-0.01133 0.04014,-0.150658 -0.295722,-0.53175 -0.207763,-0.766606 -0.0058,-0.249629 -0.004,-0.498594 5.19e-4,-0.747371 -0.07842,-0.05413 -0.09753,-0.173003 -0.01318,-0.399994 0.0018,-0.0046 0.01928,-0.04551 0.02483,-0.0594 0.0092,-0.231554 0.0227,-0.463322 0.03801,-0.694756 -0.04719,-0.145053 -0.09559,-0.289656 -0.140368,-0.435635 -0.02177,-0.07103 -0.0151,-0.149249 -0.02532,-0.223477 -0.0785,-0.567104 -0.147985,-1.137957 -0.143409,-1.712561 -1.53e-4,-0.103817 0.0023,-0.207864 0.0036,-0.311734 -7e-5,-0.09994 7.78e-4,-0.199904 10e-4,-0.299854 -1.1e-5,-0.301836 -2.9e-5,-0.44668 0,-0.929545 7e-6,-0.08411 -1.1e-5,-0.16822 0,-0.252329 -0.204362,-0.07948 -0.397057,-0.189004 -0.596941,-0.280053 -0.03228,-0.07479 -0.07565,-0.146068 -0.09729,-0.224607 -0.09919,-0.360236 0.04608,-0.696123 0.145435,-1.037606 -0.07931,-0.154788 -0.127673,-0.356954 -0.125673,-0.608761 1.72e-4,-0.02141 -0.0036,-0.04206 -0.004,-0.06337 -0.03777,-0.06825 -0.03898,-0.146132 -0.0157,-0.229132 v -5.79e-4 c -0.03477,-0.290504 -0.09232,-0.575197 0.02686,-0.868442 0.0098,-0.0108 0.01795,-0.02329 0.02736,-0.03451 -0.0026,-0.02671 -0.0043,-0.05374 -0.0076,-0.08034 -0.04649,-0.449388 -0.202237,-0.956313 0.19763,-1.285975 -0.01876,-0.413379 -0.118923,-0.818645 -0.185975,-1.227702 -0.06126,-0.37375 -0.0035,-0.266262 -0.103882,-0.433372 -0.14301,-0.593983 -0.06276,-0.04523 0.05523,-0.851473 0.008,-0.05477 -0.03186,0.115129 -0.07449,0.143705 -0.02151,0.01434 -0.0184,-0.05299 -0.01977,-0.08091 -0.0073,-0.147254 10e-4,-0.294985 -0.0021,-0.442424 0.06682,-0.09422 0.121252,-0.208033 0.176852,-0.319657 -0.06106,8.69e-4 -0.112075,0 -0.181919,0 -1.297254,0 -1.297254,-1.463059 0,-1.463059 0.187848,0 0.338895,-0.003 0.491032,0.0023 0.04141,-0.409078 0.270499,-0.616398 0.532586,-0.616114 0.331602,2.64e-4 0.71125,0.327747 0.811292,0.981596 7.78e-4,0.0043 7.78e-4,0.0087 0.0016,0.01301 0.125123,0.06383 0.24651,0.130957 0.364348,0.200846 V 53.213433 Z"
         style="fill:#ff0000;fill-opacity:1;fill-rule:nonzero;stroke:none;stroke-width:0.264583"
         id="path994" />
    </clipPath>
    <clipPath
       id="clipPath1186"
       clipPathUnits="userSpaceOnUse">
      <path
         d="m 8.0398194,14.832169 v 8.897648 h 9.7668456 v -0.172082 c 0,-0.0853 -2e-6,-0.171015 0,-0.256315 -2e-6,-0.09924 -2e-5,-0.198416 0,-0.297657 3e-5,-0.09769 7.2e-5,-0.195315 0,-0.293005 7.8e-5,-0.108763 0.0011,-0.217318 0,-0.326078 -0.0015,-0.100159 -0.0019,-0.20034 0.0067,-0.30024 0.0072,-0.06612 -0.0156,-0.133891 -0.0186,-0.199471 -0.0017,-0.03854 -0.0011,-0.07718 -0.0016,-0.115755 -0.0021,-0.04968 -0.0022,-0.0637 -0.0021,-0.102837 -0.06589,-0.14647 -0.08951,-0.174759 -0.08475,-0.380855 v -0.321427 -0.551388 h 0.03359 c -6e-6,-0.03792 -4.2e-5,-0.07585 0,-0.113688 0.03721,-0.0703 0.07441,-0.140537 0.111621,-0.21084 -0.01092,-0.05549 -0.01657,-0.09894 -0.0031,-0.09353 6.2e-5,-3.71e-4 4.5e-4,-7.41e-4 5.29e-4,-10e-4 -0.0031,-0.01319 -0.0078,-0.02599 -0.01033,-0.03927 -0.01,-0.05123 2.31e-4,-0.15319 0.0026,-0.21084 l 0.138492,0.0062 c -1.91e-4,-0.0016 -0.002,-0.01153 -0.0021,-0.0124 -0.0035,-0.0313 0,-0.06307 0,-0.09457 h 0.100252 c 0.0077,-0.0093 0.01716,-0.01933 0.02429,-0.02842 0.0011,-0.0021 0.0025,-0.0041 0.0036,-0.0062 0.0029,-0.0026 0.01104,-0.0107 0.0088,-0.0078 -0.0034,0.0045 -0.0088,0.0094 -0.0124,0.01395 -0.005,0.0095 -0.01,0.01894 -0.01499,0.02842 l 1.035596,5.29e-4 h 0.0016 c -0.0023,-0.0053 -0.0043,-0.01073 -0.0067,-0.01602 -0.0086,-0.01292 -0.01738,-0.02576 -0.02584,-0.03876 -0.0058,-0.0089 0.01556,0.01568 0.02015,0.02532 0.0021,0.0044 0.0037,0.009 0.0057,0.01344 0.0034,0.0052 0.0069,0.01035 0.01033,0.0155 l 0.02377,-0.0036 v -4.806953 z m 9.8092206,5.161442 c 0.0052,0.02238 0.0115,0.04445 0.01757,0.06666 0.04132,-0.07807 0.08271,-0.15605 0.124023,-0.234094 -0.0037,-0.02632 -0.0084,-0.05773 -0.0098,-0.06873 -0.06125,0.07126 -0.116851,0.146682 -0.131774,0.236161 z m 0.01757,0.06666 c -0.0049,0.0093 -0.01005,0.01857 -0.01499,0.02791 0.02571,0.130609 0.09151,0.343793 0.08165,0.259416 -0.01142,-0.09769 -0.04068,-0.192188 -0.06666,-0.287321 z m -0.07545,1.606103 c 2.91e-4,6.35e-4 8.47e-4,7.15e-4 10e-4,0.0016 -1.39e-4,-0.02446 -6.09e-4,-0.04893 -10e-4,-0.07338 -3.44e-4,-0.01597 9.1e-5,0.04314 0,0.07183 z m 10e-4,0.0016 c 1.91e-4,0.03376 8.73e-4,0.06753 0.001,0.101285 0.0028,0.06584 0.0076,0.111032 0.0186,0.02429 0.02252,0.04867 0.04224,0.09904 0.0677,0.146244 0.0087,0.01606 0.04001,0.06017 0.03411,0.04289 -0.05324,-0.157177 -0.09046,-0.245747 -0.121439,-0.31471 z"
         style="fill:#ff0000;fill-opacity:1;fill-rule:nonzero;stroke:none;stroke-width:0.264583"
         id="path1188" />
    </clipPath>
  </defs>
  <sodipodi:namedview
     units="px"
     id="base"
     pagecolor="#ffffff"
     bordercolor="#666666"
     borderopacity="1.0"
     inkscape:pageopacity="0.0"
     inkscape:pageshadow="2"
     inkscape:zoom="1.4"
     inkscape:cx="-21.660651"
     inkscape:cy="49.175224"
     inkscape:document-units="px"
     inkscape:current-layer="layer1"
     inkscape:document-rotation="0"
     showgrid="false"
     inkscape:window-width="1280"
     inkscape:window-height="657"
     inkscape:window-x="-8"
     inkscape:window-y="-8"
     inkscape:window-maximized="1" />
  <metadata
     id="metadata5">
    <rdf:RDF>
      <cc:Work
         rdf:about="">
        <dc:format>image/svg+xml</dc:format>
        <dc:type
           rdf:resource="http://purl.org/dc/dcmitype/StillImage" />
        <dc:title></dc:title>
      </cc:Work>
    </rdf:RDF>
  </metadata>
  <g
     transform="translate(-32.486335,-17.039167)"
     inkscape:label="Layer 1"
     inkscape:groupmode="layer"
     id="layer1"
     style="display:inline">
    <g
       id="g901"
       transform="translate(-2.6967643,29.350146)">
      <path
         d="m 41.531081,-1.9918178 a 1.1876783,1.2800566 0 0 0 -1.176638,1.27999703 1.1876783,1.2800566 0 0 0 0.359218,0.917241 L 40.010297,3.6184002 h 3.06719 L 42.33068,0.24530923 a 1.1876783,1.2800566 0 0 0 0.399141,-0.95713 1.1876783,1.2800566 0 0 0 -1.187743,-1.27999703 1.1876783,1.2800566 0 0 0 -0.011,0 z"
         style="display:inline;fill-rule:evenodd;stroke-width:0.669986;stroke-miterlimit:4;stroke-dasharray:none"
         id="path996-7" />
      <path
         id="path1020-8"
         style="display:inline;fill-rule:evenodd;stroke-width:0.669986;stroke-miterlimit:4;stroke-dasharray:none"
         d="m 41.531081,-1.9918178 a 1.1876783,1.2800566 0 0 0 -1.176638,1.27999703 1.1876783,1.2800566 0 0 0 0.359218,0.917241 L 40.010297,3.6184002 h 3.06719 L 42.33068,0.24530923 a 1.1876783,1.2800566 0 0 0 0.399141,-0.95713 1.1876783,1.2800566 0 0 0 -1.187743,-1.27999703 1.1876783,1.2800566 0 0 0 -0.011,0 z" />
      <rect
         ry="0.5894233"
         y="-4.4763923"
         x="35.741425"
         height="10.349116"
         width="11.905246"
         id="rect1030-9"
         style="display:inline;fill:none;fill-rule:evenodd;stroke:#000000;stroke-width:1.11665;stroke-miterlimit:4;stroke-dasharray:none;stroke-opacity:1" />
      <path
         inkscape:path-effect="#path-effect895"
         inkscape:original-d="m 37.366694,-4.5802838 c 4.1e-5,-2.494698 4.1e-5,-4.9894371 0,-7.4842212 2.882243,4.1e-5 5.764326,4.1e-5 8.646428,0 0.0211,2.4948323 0.04217,4.9895232 0.06319,7.4842212"
         id="path888-3-2"
         d="m 37.366694,-4.5802838 c 0,-2.494698 0,-4.9894371 1.441122,-6.2368292 1.441121,-1.247392 4.323204,-1.247392 5.774787,2.4e-5 1.451583,1.2474166 1.472646,3.7421076 1.493709,6.2368052"
         style="display:inline;fill:none;stroke:#000000;stroke-width:1.11665;stroke-linecap:butt;stroke-linejoin:miter;stroke-miterlimit:4;stroke-dasharray:none;stroke-opacity:1" />
    </g>
  </g>
</svg>
