<svg id="Capa_1" enable-background="new 0 0 512.101 512.101" height="512" viewBox="0 0 512.101 512.101" width="512" xmlns="http://www.w3.org/2000/svg"><g><path d="m436.862 75.238c-100.3-100.301-261.29-100.335-361.624 0-100.301 100.3-100.335 261.29 0 361.624 100.3 100.301 261.29 100.335 361.624 0 100.301-100.299 100.335-261.29 0-361.624zm-195.812 60.812c0-8.284 6.716-15 15-15s15 6.716 15 15v80c0 8.284-6.716 15-15 15s-15-6.716-15-15zm15 231c-61.206 0-111-49.794-111-111 0-32.026 13.837-62.493 37.965-83.589 6.237-5.453 15.713-4.818 21.166 1.418s4.818 15.713-1.418 21.166c-17.611 15.399-27.712 37.635-27.712 61.005 0 44.664 36.336 81 81 81s81-36.336 81-81c0-23.142-9.936-45.232-27.26-60.607-6.196-5.499-6.761-14.979-1.263-21.176 5.499-6.197 14.979-6.761 21.176-1.263 23.735 21.064 37.347 51.333 37.347 83.045-.001 61.207-49.795 111.001-111.001 111.001z"/></g></svg>